<?xml version="1.0" encoding="UTF-8"?>
<svg width="752pt" height="752pt" version="1.1" viewBox="0 0 752 752" xmlns="http://www.w3.org/2000/svg">
 <path d="m545.54 430.46v1.4219l-14.68 100.87c-1.4219 8.5234-2.3672 16.574-3.7891 25.574-1.4219 5.6836-3.3164 10.418-5.6836 15.156-2.8398 4.7344-6.6289 8.9961-10.891 12.785-8.9961 7.1055-19.418 10.891-29.363 11.84-4.7344 0.47266-10.418 0.94531-14.207 0.94531h-12.785c-23.207 0-46.41 0-69.617-0.47266-11.367-0.47266-23.207-0.47266-34.57-0.94531l-17.523-0.47266h-7.1016c-0.47266 0-1.8945-0.47266-2.8398-0.47266l-2.8398-0.47266-2.8398-0.94531c-1.8945-0.47266-3.3164-0.94531-5.2109-1.8945-7.5781-2.8398-13.262-8.0508-17.051-13.262-0.47266-0.94531-1.4219-1.8945-1.8945-2.8398-0.94531 0.94531-1.8945 1.4219-2.3672 1.8945-3.3164 2.3672-7.1055 3.3164-9.9453 3.3164-6.1562 0-8.9961-2.8398-9.4727-5.6836-0.47266-3.3164 1.8945-5.6836 3.3164-8.0508 1.8945-2.3672 3.3164-5.2109 3.7891-7.5781v-0.94531-0.47266-1.8906 0.47266-0.94531l-0.47266-8.9961-0.47266-17.996c-0.47266-11.84-0.47266-23.68-0.47266-35.992v-35.992l0.47266-33.625c0-2.3672-1.8945-4.7344-4.2617-6.1562h-0.47266-1.4219-5.6836l-11.367 0.47266h-11.367-1.4219-0.47266-0.94531c-0.47266 0-0.94531 0.47266-1.8945 0.47266-0.94531 0.47266-1.8945 1.4219-2.8398 2.3672-0.47266 0.47266-0.47266 0.94531-0.47266 1.8945v2.8359l-0.48438 24.145c-0.94531 30.309-1.8945 60.617-3.3164 90.926 0 3.3164-0.47266 6.1562-0.47266 9.4727l-0.47266 4.7344c0 1.4219-0.47266 3.3164-0.47266 3.7891-0.47266 3.3164 0.94531 7.1055 3.7891 10.418 1.4219 1.4219 3.3164 2.8398 5.2109 3.3164 0.47266 0.47266 0.94531 0.47266 1.8945 0.47266h0.47266s0.47266 0 0 0h1.418c1.4219 0.47266 2.8398 0.47266 4.2617 0.94531 5.6836 1.4219 10.891 2.8398 16.102 4.7344 6.1562 2.3672 10.418 5.2109 7.1055 8.5234-1.4219 1.8945-6.6289 4.2617-9.9453 4.2617l-13.734-0.47266h-8.9922l-1.8945-0.47266c-1.4219 0-2.3672-0.47266-3.3164-0.47266-1.8945-0.47266-3.7891-0.94531-5.6836-1.8945-7.1055-3.3164-12.785-8.9961-16.574-15.629-1.8945-3.3164-2.8398-7.1055-3.3164-11.367v-2.8398-5.6836-54.934c0-18.469 0.47266-36.465 0.94531-54.934l0.47266-13.734v-5.6797l0.47266-1.8945c0-0.94531 0.47266-2.3672 0.47266-3.3164l0.94531-2.8398c0.47266-1.8945 1.4219-3.3164 2.3672-4.7344 3.3164-6.1562 8.9961-11.367 15.629-13.734 3.3164-1.4219 6.6289-1.8945 9.9453-1.8945h2.3672 1.8945l3.3164 0.47266 15.156-0.47266h11.836 0.94531 1.4219l2.8438 0.94531c7.5781 1.8945 14.207 6.1562 17.996 12.785 1.8945 3.3164 3.7891 6.6289 4.2617 10.418 0.47266 1.8945 0.47266 3.7891 0.47266 5.6836v3.7891c0.47266 20.363 0.94531 40.254 0.94531 60.617 0 12.312 0 25.102-0.47266 37.414-0.47266 6.1562-0.47266 12.312-0.94531 18.941l-0.47266 9.4727v1.4219c0 0.47266 0.47266 0.47266 0.47266 0.94531 3.3164 5.2109 9.4727 11.367 17.523 14.68l2.8398 0.94531c0.94531 0 1.8945 0.47266 2.8398 0.47266h0.94531 0.47266 0.94531 2.8398-0.47266 0.94531l16.574-0.47266 33.152-0.47266c22.258-0.47266 44.043-0.47266 66.301-0.47266h24.625c2.3672 0 4.2617 0 6.6289-0.47266 8.5234-0.94531 15.629-4.2617 19.418-8.9961 0.94531-1.4219 1.8945-2.8398 2.8398-4.2617 0.47266-0.94531 0.94531-1.4219 0.94531-2.3672l0.47266-1.4219 0.47266-0.94531c0-0.94531 0.47266-1.4219 0.94531-2.8398l0.94531-4.2617 1.4219-8.0508 5.6836-32.676c2.3672-13.734 4.7344-27.469 7.1055-41.203 1.8945-11.84 3.3164-24.152 5.2109-35.992v-2.3672c0-0.94531-0.47266-1.8945-0.47266-2.8398-0.47266-1.8945-0.94531-3.7891-1.8945-5.2109-1.4219-3.3164-3.7891-6.6289-7.1055-8.9961-2.8398-2.3672-6.6289-3.7891-9.9453-4.7344-1.4219-0.94531-8.9961-0.47266-14.68-0.47266-23.207 0-46.883-0.47266-70.09-0.47266h-0.47266c-7.1055 0-12.785-5.6836-12.312-12.785l0.47266-36.938 0.47266-18.469v-8.5234c0-2.8398 0-5.2109-0.47266-7.5781-0.94531-5.2109-1.8945-9.4727-4.2617-13.262-0.94531-1.8945-2.3672-3.3164-3.7891-4.7344-1.4219-1.4219-2.8398-2.3672-4.7344-3.3164-3.7891-1.8945-8.0508-2.8398-13.262-3.3164h-7.5781-0.47266v3.3164c0 11.84-0.47266 23.207-0.94531 34.57-0.47266 5.6836-0.47266 10.891-1.4219 17.523 0 1.4219-0.47266 3.3164-0.47266 4.7344l-1.4219 4.7344-1.4219 4.2617c-0.47266 1.4219-1.4219 2.8398-1.8945 4.2617-5.2109 11.367-13.262 19.891-22.258 26.047s-18.469 9.9453-27.469 12.312c-5.6836 1.4219-10.418 1.8945-13.262 0.94531-1.4219-0.47266-2.3672-0.94531-2.3672-1.4219-0.47266-0.94531 0-1.8945 0.94531-2.8398 1.8945-2.3672 8.5234-8.0508 13.262-10.418 8.9961-4.7344 16.574-10.418 22.73-17.051 6.1562-7.1055 9.9453-14.68 11.367-23.207 0.47266-2.3672 0.47266-4.2617 0.47266-6.6289v-59.672c0-6.1562 4.2617-11.84 9.9453-13.262 1.4219-0.47266 2.3672-0.47266 3.3164-0.94531l2.8398-0.47266c1.8945-0.47266 3.7891-0.47266 5.6836-0.94531 3.7891-0.47266 7.5781-0.47266 11.367-0.47266 7.5781 0 15.629 1.4219 23.68 5.2109 3.7891 1.8945 7.5781 4.2617 10.891 7.5781 3.3164 2.8398 6.1562 6.6289 8.5234 9.9453 4.2617 7.1055 6.6289 15.156 8.0508 22.258 0.47266 3.7891 0.94531 7.1055 0.94531 10.891v28.414c0 7.5781 0 15.629-0.47266 23.207 15.629 0.47266 31.258 0.47266 46.883 1.4219l15.156 0.47266h4.2617l3.7891 0.47266c1.8945 0.47266 3.7891 0.47266 5.2109 0.94531s3.3164 0.94531 4.7344 1.4219c12.312 4.2617 22.258 13.734 27.469 25.574 1.8945 3.3164 3.3164 7.1055 4.2617 10.891 0.47266 1.8945 0.94531 3.7891 0.94531 5.6836 1.4453 1.4141 1.918 3.7812 1.918 5.2031zm-95.188-189.43c7.1055 3.3164 11.84 2.8398 15.156 0.94531 7.5781-4.7344 15.629-8.5234 20.363-16.102 0.94531-0.47266 1.8945-0.94531 2.8398-1.8945 5.6836-3.7891 10.418-8.5234 13.262-15.156 0.94531-1.8945-0.47266-5.2109-5.2109-9.9453-4.2617-4.2617-8.5234-6.1562-10.418-5.2109-3.3164 1.4219-6.6289 3.3164-8.9961 5.6836-3.7891 4.2617-6.6289 8.9961-9.9453 13.734-12.785 1.4219-17.051 11.84-25.574 17.996-0.47266 0.47266 0.94531 2.3672 1.8945 3.7891 1.8906 3.3164 4.7344 5.2109 6.6289 6.1602zm28.887 53.039c-0.47266 0-0.94531 2.3672-1.4219 4.2617-0.47266 3.3164 0 6.6289 0.94531 8.5234 2.8398 7.5781 6.1562 10.418 9.9453 11.367 8.5234 1.8945 17.051 5.2109 25.574 2.8398 0.94531 0.47266 1.8945 0.47266 3.3164 0.94531 6.6289 1.4219 13.262 1.4219 20.363-1.4219 1.8945-0.94531 3.3164-4.2617 3.3164-10.418s-1.4219-10.418-3.3164-10.891c-3.3164-1.4219-7.1055-2.3672-10.418-2.3672-5.6836 0.47266-11.367 1.8945-17.051 2.8398-10.418-8.5195-20.836-3.7852-31.254-5.6797zm-104.19-78.613c3.3164 0.47266 6.6289 0 8.5234-0.94531 7.5781-2.8398 10.418-6.1562 11.367-9.9453 1.8945-8.5234 5.2109-17.051 2.8398-25.574 0.47266-0.94531 0.47266-1.8945 0.94531-3.3164 1.4219-6.6289 1.4219-13.262-1.4219-20.363-0.94531-1.8945-4.2617-3.3164-10.418-3.3164s-10.418 1.4219-10.891 3.3164c-1.4219 3.3164-2.3672 7.1055-2.3672 10.418 0.47266 5.6836 1.8945 11.367 2.8398 17.051-8.0508 9.9453-3.3164 20.363-5.2109 30.781-0.46875 0.94922 1.8984 1.8945 3.793 1.8945zm-98.504 0.94922c4.2617 3.7891 8.9961 6.6289 13.734 9.9453 1.4219 12.785 11.84 17.051 17.996 25.574 0.47266 0.47266 2.3672-0.94531 3.7891-1.8945 2.8398-2.3672 4.2617-4.7344 5.2109-6.6289 3.3164-7.1055 2.8398-11.84 0.94531-15.156-4.7344-7.5781-8.5234-15.629-16.102-20.363-0.47266-0.94531-0.94531-1.8945-1.8945-2.8398-3.7891-5.6836-8.5234-10.418-15.156-13.262-1.8945-0.94531-5.2109 0.47266-9.9453 5.2109-4.2617 4.2617-6.1562 8.5234-5.2109 10.418 2.3711 3.3125 3.7891 6.625 6.6328 8.9961zm-44.043 101.34c3.3164 1.4219 7.1055 2.3672 10.418 2.3672 5.6836-0.47266 11.367-1.8945 17.051-2.8398 9.9453 8.0508 20.363 3.3164 30.781 5.2109 0.47266 0 0.94531-2.3672 1.4219-4.2617 0.47266-3.3164 0-6.6289-0.94531-8.5234-2.8398-7.5781-6.1562-10.418-9.9453-11.367-8.5234-1.8945-17.051-5.2109-25.574-2.8398-0.94531-0.47266-1.8945-0.47266-3.3164-0.94531-6.6289-1.4219-13.262-1.4219-20.363 1.4219-1.4219 0.94141-2.8438 4.2539-2.8438 10.887 0 6.1562 1.4219 10.418 3.3164 10.891z"/>
</svg>
